/* XPM */
static const char *addx[] = {
/* columns rows colors chars-per-pixel */
"48 48 61 1 ",
"  c None",
". c #2751A7",
"X c #2752AA",
"o c #2853AD",
"O c #2956B2",
"+ c #2A59B5",
"@ c #2C5DBA",
"# c #2D61BD",
"$ c #3C69BB",
"% c #426FBF",
"& c #4270BF",
"* c #235ED1",
"= c #2E63C2",
"- c #316ACB",
"; c #3472CE",
": c #2662D3",
"> c #2966D4",
", c #2C6AD6",
"< c #2E6ED9",
"1 c #3266D1",
"2 c #346BD4",
"3 c #3B6CD2",
"4 c #2F70DA",
"5 c #3574D5",
"6 c #3A72D7",
"7 c #3479D5",
"8 c #3374DB",
"9 c #3974D9",
"0 c #3679DE",
"q c #3B7BDE",
"w c #3A7DE0",
"e c #4270C0",
"r c #4676D7",
"t c #4778D7",
"y c #447BDB",
"u c #487CDA",
"i c #407FE0",
"p c #3D82E3",
"a c #3F9CEF",
"s c #399BF1",
"d c #3FA3F5",
"f c #4581DF",
"g c #4D84DF",
"h c #658FDE",
"j c #4683E1",
"k c #4F87E0",
"l c #4F88E1",
"z c #518BE2",
"x c #41A6F6",
"c c #4AA3F2",
"v c #54A7F1",
"b c #50ABF6",
"n c #5AB0F6",
"m c #7DB2EA",
"M c #6AB7F6",
"N c #78B5F0",
"B c #74BCF7",
"V c #7DB8F0",
"C c #88C7F9",
"Z c #8FC9F9",
"A c #90C8F8",
/* pixels */
"                  Xe%%%%eeeX                    ",
"                 XmAAAAAAAAmX                   ",
"                 XAh1111111vO                   ",
"                 oAr1111111vO                   ",
"                 oAr1111111c+                   ",
"                 OAt1111112c+                   ",
"                 oAt1111211c+                   ",
"                 OAt1112122c+                   ",
"                 OAr1211221c+                   ",
"                 OAt1122212c+                   ",
"                 OAy21,2222c@                   ",
"                 +Ay1222222c@                   ",
"                 +At2222222c@                   ",
"                 +Au2222226c@                   ",
"                 +Zu2226626c@                   ",
"                 +Zu2222266c@                   ",
"                 +Au2622666c=                   ",
" XXooOooOOOO+++++@Zu2628666c=@==#===========#   ",
"XmZAAAAAAAZZZZAZAAZu2866668BZZZZZZZZZZZZZZZZV@  ",
"$Ahrrrrrryttruuyfuu92628869kkgkkllzzzzzzzzzzn;  ",
"%A311111112122223262626668q69qqqqqqiqwjqjpjwc7  ",
"&A1111111212222226266868682824<<48880880wwqwc7  ",
"%A1111121222222262682<,,,,<<<<8888880000w0wwx7  ",
"%A1111111>21222222,>>>,,,<<448888000wqw0wwwwx7  ",
"%A1111112122222,::>>>,,,<<488<8w0000wwwpppppx7  ",
"%A11111111222>*::::>,,,<<4488w8800wwwpppppppx7  ",
"$Z111111122>****:>><,,<<48488wwwwwwpppppppjpx7  ",
"XmvcccccccsassssssMq,,<<488ddddsdxdxdxxxxxxxa#  ",
" .OOO+++@@@@@@@@==Cq,<44888d=--=--------5--2#   ",
"                 #Cy<<48808d-                   ",
"                 =Cy<448888x-                   ",
"                 @Cq<4888w0d-                   ",
"                 =Cy444000wd-                   ",
"                 =Cy48880wwd-                   ",
"                 =Cf84000wwd-                   ",
"                 =Cf4000wwpd-                   ",
"                 =Cf8880wwpd-                   ",
"                 =Cf8800wwpd-                   ",
"                 =Cj800wwppd;                   ",
"                 =Cj808wwppd-                   ",
"                 =Cj00wwqppd-                   ",
"                 =Zj800wwpax-                   ",
"                 =Cf80wwppjd-                   ",
"                 =Cj000wwppx2                   ",
"                 #Nbddxxxdxs#                   ",
"                  #;;757777#                    ",
"                                                ",
"                                                "
};
