/* XPM */
static const char *bloomx[] = {
/* columns rows colors chars-per-pixel */
"48 48 201 2 ",
"   c None",
".  c gray1",
"X  c #040404",
"o  c gray2",
"O  c #060606",
"+  c #070707",
"@  c #090909",
"#  c gray4",
"$  c #0B0B0B",
"%  c #0C0C0C",
"&  c gray5",
"*  c #101010",
"=  c #111111",
"-  c gray7",
";  c #131313",
":  c gray8",
">  c #151515",
",  c #161616",
"<  c gray9",
"1  c #181818",
"2  c #191919",
"3  c gray10",
"4  c #1B1B1B",
"5  c gray11",
"6  c #1D1D1D",
"7  c #1E1E1E",
"8  c gray12",
"9  c #202020",
"0  c gray13",
"q  c #222222",
"w  c #232323",
"e  c gray14",
"r  c #252525",
"t  c gray15",
"y  c #272727",
"u  c #282828",
"i  c gray16",
"p  c #2A2A2A",
"a  c gray17",
"s  c #2C2C2C",
"d  c #2D2D2D",
"f  c gray18",
"g  c #2F2F2F",
"h  c gray19",
"j  c #313131",
"k  c #323232",
"l  c gray20",
"z  c #343434",
"x  c #353535",
"c  c gray21",
"v  c #373737",
"b  c gray22",
"n  c #393939",
"m  c #3A3A3A",
"M  c gray23",
"N  c #3C3C3C",
"B  c gray24",
"V  c #3E3E3E",
"C  c #3F3F3F",
"Z  c gray25",
"A  c #414141",
"S  c gray26",
"D  c #434343",
"F  c #444444",
"G  c gray27",
"H  c #464646",
"J  c gray28",
"K  c #484848",
"L  c #494949",
"P  c gray29",
"I  c #4B4B4B",
"U  c #4C4C4C",
"Y  c gray30",
"T  c #4E4E4E",
"R  c gray31",
"E  c #505050",
"W  c #515151",
"Q  c gray32",
"!  c #535353",
"~  c gray33",
"^  c #555555",
"/  c #565656",
"(  c gray34",
")  c #585858",
"_  c gray35",
"`  c #5A5A5A",
"'  c #5B5B5B",
"]  c gray36",
"[  c #5D5D5D",
"{  c gray37",
"}  c #5F5F5F",
"|  c #606060",
" . c gray38",
".. c #626262",
"X. c gray39",
"o. c #646464",
"O. c #656565",
"+. c gray40",
"@. c #676767",
"#. c #686868",
"$. c DimGray",
"%. c #6A6A6A",
"&. c gray42",
"*. c #6C6C6C",
"=. c #6D6D6D",
"-. c #6F6F6F",
";. c gray44",
":. c #717171",
">. c #727272",
",. c gray45",
"<. c #767676",
"1. c gray47",
"2. c #797979",
"3. c gray48",
"4. c #7B7B7B",
"5. c gray50",
"6. c #808080",
"7. c #818181",
"8. c gray51",
"9. c #838383",
"0. c #848484",
"q. c gray52",
"w. c #868686",
"e. c #888888",
"r. c #898989",
"t. c gray54",
"y. c gray55",
"u. c #8E8E8E",
"i. c gray56",
"p. c #929292",
"a. c #939393",
"s. c gray58",
"d. c #979797",
"f. c gray60",
"g. c #9A9A9A",
"h. c #9B9B9B",
"j. c #9F9F9F",
"k. c #A0A0A0",
"l. c #A4A4A4",
"z. c gray65",
"x. c #A7A7A7",
"c. c gray66",
"v. c #A9A9A9",
"b. c gray67",
"n. c gray68",
"m. c gray69",
"M. c #B1B1B1",
"N. c #B2B2B2",
"B. c gray70",
"V. c gray71",
"C. c #B6B6B6",
"Z. c #B7B7B7",
"A. c gray73",
"S. c #BCBCBC",
"D. c gray",
"F. c gray75",
"G. c gray76",
"H. c #C3C3C3",
"J. c #C5C5C5",
"K. c gray78",
"L. c gray79",
"P. c #CACACA",
"I. c gray80",
"U. c #CECECE",
"Y. c #D0D0D0",
"T. c #D2D2D2",
"R. c LightGray",
"E. c gray83",
"W. c #D8D8D8",
"Q. c gray85",
"!. c #DADADA",
"~. c gainsboro",
"^. c gray87",
"/. c gray88",
"(. c #E1E1E1",
"). c #E2E2E2",
"_. c #E4E4E4",
"`. c gray90",
"'. c #E6E6E6",
"]. c gray91",
"[. c #E9E9E9",
"{. c #EAEAEA",
"}. c gray92",
"|. c #ECECEC",
" X c gray93",
".X c #EEEEEE",
"XX c #EFEFEF",
"oX c #F1F1F1",
"OX c #F3F3F3",
"+X c #F4F4F4",
"@X c gray96",
"#X c #F6F6F6",
"$X c gray97",
"%X c #F8F8F8",
"&X c #F9F9F9",
"*X c gray98",
"=X c #FBFBFB",
"-X c gray99",
";X c #FDFDFD",
":X c #FEFEFE",
">X c white",
/* pixels */
"                                                                                                ",
"                                                                                                ",
"                U / ..O.+. .L H H J H ) #.#.#.#.o.I J J J G / @.+.+.+.X.L G G J V               ",
"            L ) h.I.'.}.{.i.s i i u F H. X}.}.}.f.h p p u V S.|.}.}.|.k.g y p j Z D             ",
"          S S A.>X>X>X>XS.b r y r z N.>X>X>X>XJ.C t u y h c.>X>X>X>XI.S w e w a p.t.K k         ",
"        Z k k.:X>X>X>XY.G e t t s f.;X>X>X>XW.T t u y p i.=X>X>X>X^.Q w e e r q.*X%Xg.G a       ",
"      F d w.&X>X>X>X).( w t t y 5.#X>X>X>X]. .t u u t <.OX>X>X>X X#.w r e q *.XX>X>X%X9.M       ",
"      l %. X:X-X;X X=.w r r r o.[.:X-X;XoX1.t y y t [ _.:X-X;X+X6.r r e w ! ^.:X-X;X$X7.l f     ",
"    Z i R +.o.o.O.~ t r r r t R #.+.+.@._ a t y y y U #.+.+.@.' p e r e e H +.o.o.o.` p y c     ",
"    v e =.x.z.z.x.u.l w r r t $.c.x.x.c.s.n r t t t X.x.x.x.x.d.N w e e w ' l.z.z.z.f.C 0 k     ",
"    j 9 P Q.>X>X>X>Xg.i w r e J T.>X>X>X>Xl.f r t r A P.>X>X>X>Xn.h w e q m G.>X>X>X>XV.j f     ",
"    f q 9 ' '.>X>X>X$X6.e e e w ^ /.>X>X>X&Xt.y r r w T !.>X>X>X-Xa.u w w 0 H E.>X>X>X:Xf.k     ",
"    f q q 0 ,.OX>X>X>X X@.q e e w &..X>X>X>XoX:.e r r w ..[.>X>X>X@X2.w w w 9 ` `.>X>X>X_.J     ",
"    d q q 0 r y.-X>X>X>X).^ w e e r 0.&X>X>X>X].[ w e e e 3.#X>X>X>X Xo.q q q 0 >.OX>X>X{.L     ",
"    a 9 0 0 9 s u.V.B.B.V.7.y q w q a r.V.B.B.C.e.a w w q u 8.V.B.B.C.u.s 9 0 0 r 4.M.m.j.N     ",
"    v d f g g g h l l z z x k j j k j k x x x x c l k k k j j z z z l z j g g g f d g g f x     ",
"    / R E W W Q ! ! ~ ~ ^ / / ( ( ( ) ) ) ) ) ) ) ) ) ) ( ( / / ^ ^ ~ ~ ! ! Q W E E R T Y Q     ",
"    / R E W Q Q ! ~ ~ ^ / / ( ( ( ) ) ) ) ) _ ) ) ) ) ) ) ( ( / / ^ ^ ~ ~ ! Q W W E R T Y Q     ",
"    ^ T R E W W Q ! ! ~ ~ ^ ^ ^ / / / ( ( ( ( ( ( ( ( / / / ^ ^ ~ ~ ! ! Q Q W E E R T Y U E     ",
"    ! Y T R R E W W Q Q ! ! ~ ~ ~ / / ! ^ / ^ / / ^ ^ ^ ^ ~ ~ ~ ! ! Q Q W E E R T T Y U I R     ",
"    Q U Y T T R E E W W W Q Q ! Q @.b.,.! ! ~ ~ ~ ~ ~ ~ ! ! ! Q Q W W E E R R T Y Y U I P T     ",
"    E I U U Y T T R R E E W W W E &.XX{.l.o.W Q Q Q Q Q Q Q W W E E E R R T Y Y U I I P L U     ",
"    R P I I U U Y Y T T R R E E R %..X>X:X!.i._ R W W E E E E R R R T T Y Y U U I P P L K I 0   ",
"    Y L L P I I U U Y Y Y T T T Y $. X>X>X>X&XK.4.Q T R R R T T T Y Y U U I I P P L K K J P 9   ",
"    U J K L L P P I I U U U Y Y U @. X>X>X>X>X>XoXN.$.Y U Y Y Y U U I I I P P L L K J J H K 8   ",
"    P H J J K K L L P P I I I U P +. X>X>X>X>X>X>X>X_.h.' P I I I I P P L L K K J J H G G H 7   ",
"    L G H H J J K K L L L P P P L O. X>X>X>X>X>X>X>X>X;XE.q.E K L L L K K J J H H G G F D G 6   ",
"    J F F G G H H J J K K K K L J o. X>X>X>X>X>X>X>X>X>X>X$XF.;.L H J J J H H G G F D D S F 6   ",
"    H S D F F F G G H H H J J J H .. X>X>X>X>X>X>X>X>X>X>X>X>X Xv.| J H G G F F D D S S A S 5   ",
"    F A S S D D F F F G G G H H F  .|.>X>X>X>X>X>X>X>X>X>X>X>X>X>XR.| S F D D D S A A Z Z A 4   ",
"    D Z Z A A S S D D D F F F F D | |.>X>X>X>X>X>X>X>X>X>X>X>X-XL.-.v n S S S A A Z Z C C C 3   ",
"    A V C Z Z Z A A S S S S D D A } |.>X>X>X>X>X>X>X>X>X>X>X~.q.B a s f b Z Z Z C C V V B V 2   ",
"    Z B V V C C C Z Z Z A A A S Z [ |.>X>X>X>X>X>X>X>X>X|.j.P a s d s s d c V C V B B B N N 1   ",
"    V N N B B V V V C C C Z Z Z C ] |.>X>X>X>X>X>X>X#XZ.] f p s a a a a a s x B B N M M m m <   ",
"    N m M M N N B B B V V V V C B ' |.>X>X>X>X>X;XU.>.l i a a a a a p p p i p l M m n n b b ,   ",
"    m b b n m m M M N N N B B B M ` |.>X>X>X>X(.t.B u p p p p p p i i i u u u u j b v v c c >   ",
"    b x c v v b n n m m m M M M m ) }.>X>XXXl.U u u i i i i u u u u u y y y t t t f x x z z :   ",
"    x l z x x c c v v b b n n n b ( .X*XS.{ a t u u u y y y y y y t t t r r r e e e s k k j -   ",
"    j k k l l z z x x c c c v v x ! D.<.j e t t t t t t t t t r r r r e e e w w w q q p h d     ",
"    d h h h j j k k l l z z z x x M M w e r r r r e e e e e e e e w w w q q q 0 0 0 9 9 u t     ",
"    q d f f g g h h j j j k k k l k h u w w w w w w w w w w w q q q q 0 0 0 9 9 9 8 8 7 8 :     ",
"      t s s s d f f f g g h h h h j j g y q q q q q q q 0 0 0 0 9 9 9 9 9 8 8 7 7 7 6 6 2 o     ",
"      , y p p a a s s s d d d f f f f f d r 9 9 9 9 9 9 9 9 8 8 8 8 7 7 7 7 6 6 5 5 4 2 %       ",
"        , w y i i p p p a a a s s s s s s a e 8 8 8 7 7 7 7 7 7 6 6 6 6 5 5 5 4 4 3 < &         ",
"          * 6 w r t y u u u i i i i p p p p i q 6 6 6 6 5 5 5 5 4 4 4 4 3 3 2 2 < ; #           ",
"              = 1 5 7 8 8 8 9 9 9 9 9 9 0 0 0 9 3 , , , , , , , , , , > > : - * $ .             ",
"                    @ # # # # # # # # # # # # # @ + + + + + + + + + + + O O X                   ",
"                                                                                                "
};
