/* XPM */
static const char *deletex[] = {
/* columns rows colors chars-per-pixel */
"48 48 75 1 ",
"  c None",
". c #931717",
"X c #9F1717",
"o c #921818",
"O c #9B1A1A",
"+ c #B60606",
"@ c #B80707",
"# c #B70B0B",
"$ c #BC0B0B",
"% c #A21616",
"& c #A61919",
"* c #AC1A1A",
"= c #BC1212",
"- c #BE1B1B",
"; c #A32222",
": c #AF2121",
"> c #B52323",
", c #BD2D2D",
"< c #BF3030",
"1 c #BF3939",
"2 c #C00E0E",
"3 c #C41212",
"4 c #C91616",
"5 c #C11D1D",
"6 c #CD1A1A",
"7 c #D11E1E",
"8 c #C52222",
"9 c #C92424",
"0 c #C62E2E",
"q c #CA2B2B",
"w c #D52222",
"e c #DA2626",
"r c #D32D2D",
"t c #DD2929",
"y c #C43333",
"u c #C53B3B",
"i c #CB3D3D",
"p c #D73131",
"a c #DB3434",
"s c #E22D2D",
"d c #E63131",
"f c #EA3434",
"g c #E43C3C",
"h c #EE3838",
"j c #F23B3B",
"k c #C54343",
"l c #CA4343",
"z c #C54B4B",
"x c #CA4C4C",
"c c #D24343",
"v c #D74848",
"b c #DB4C4C",
"n c #CD5555",
"m c #CE5B5B",
"M c #D35757",
"N c #D05A5A",
"B c #EC4444",
"V c #F44545",
"C c #E45353",
"Z c #E85757",
"A c #EB5A5A",
"S c #F25E5E",
"D c #D16464",
"F c #D46E6E",
"G c #D57171",
"H c #D87373",
"J c #DD7979",
"K c #F46161",
"L c #F96464",
"P c #DC8686",
"I c #E18787",
"U c #E28989",
"Y c #E29292",
"T c #E79B9B",
"R c #E9A4A4",
/* pixels */
"                                                ",
"       >Hm&                        *NF:         ",
"      >YRPx%                      *GTPm&        ",
"     >YRGnFz%                    *GTJkmn*       ",
"    >YRFlzxDzX                  &FTHuuuMn&      ",
"   >YRGlklkxDz%                *GTHuyyuumx;     ",
"  >YRGzkkkukxDzX              *FTGuy0yyyuMx&    ",
" >YRFllklkkkuxDzX            *GTGu0yyy0yyuMn*   ",
" HRGlklkklkuuuzNzX          *GTHyyyyyyyyyyuMk   ",
" mPnkzkkuukuuuukmzX        *GTHyy0y0000y00im1   ",
" &zFnuukkkuuuuuulmkO      *FTHyy0yy0yy000iMk.   ",
"  XzDnkkuuuuuu1uulmkX    *FTHyyq0y0yq00yimk.    ",
"   %zDxuuuuu1uuyuukMkX  *FTHyqyy0y000yyiMk.     ",
"    XzDxuuuuuyyuyyykmkX&FTHyqyyq0yq00qiMk.      ",
"     %zDxuuuuuy<yyyylmkHTHyy00q00q00qiMu.       ",
"      XkDxuyyyyuyyyy0lMUHq000yq000qqiMk.        ",
"       Xzmlyuyyyyyyyy0il0853-$2$$225iy.         ",
"        Xzmzyyyyyy0y95=$@$$2$222225cy.          ",
"         XzMlyyyy0-@$@$$$$$$$22229iu.           ",
"          OkNly>@@@@@$$$$=2232338cyo            ",
"           Xkx-@@@@$$$$$3$3$2339iyo             ",
"            %,y-@@$$$$2$$$33339cuo              ",
"             O,u5@$$$$22333339cyo               ",
"             &DJ8@$$2222233339cyo               ",
"            *DIM$$$$2$33333443qvyO              ",
"           *DUm=$$$$$2233334444rvyO             ",
"          *DUM$@$2$2333333444666rbu%            ",
"         *DUM=$$$$22$333344446667pbuO           ",
"        *DUM@$$$222233334446667777abiO          ",
"       *DIm@@@$$$2$33399444676777wwaCiO         ",
"      *DUm$@$$$2$22339cc96667777weweaCcO        ",
"     *DUm$@@@$$$22239cyycr6677wwweettaClO       ",
"    *DIm#@@$@$$22228cyooyvr77wwwtettssgZcO      ",
"   *DIn$@@@$$$$$229cy.  Oubr7wweetttsssgAcO     ",
"  *DPn#+@@@@$$2229ly.    OubawwettsssdddBAcO    ",
" *DIn#++@@@@$$$28iyo      %ubaettsssddffdBScO   ",
" nPm#+++@@@$$$25ly.        OiCattssdfffffhVSl   ",
" ND=++++@@$$$$8iy.          OiCgssddfffjjhVSc   ",
" >uy##+@@@@$@5iy.            OiCgddffhjjjVKC;   ",
"  &<<#++@$@$5i0.              OcZgdfhjjjVLA;    ",
"   &,u=@@@@5i<.                OcABfjjjVLA;     ",
"    &,1$@@-i<.                  OcABjjVLA;      ",
"     &yy=5y,.                    OcKVVKA;       ",
"      &uuu0.                      OcSSZ;        ",
"       &,,.                        Olb;         ",
"                                                ",
"                                                ",
"                                                "
};
