/* XPM */
static const char *loadx[] = {
/* columns rows colors chars-per-pixel */
"48 48 192 2 ",
"   c None",
".  c #655633",
"X  c #74643C",
"o  c #847144",
"O  c #917D4A",
"+  c #028301",
"@  c #048B02",
"#  c #0A8B04",
"$  c #029301",
"%  c #0D9306",
"&  c #009900",
"*  c #0C9F06",
"=  c #16970B",
"-  c #1C990E",
";  c #348E1B",
":  c #2D9A16",
">  c #259219",
",  c #0EA00D",
"<  c #17A40B",
"1  c #1DA40E",
"2  c #19A513",
"3  c #21A910",
"4  c #2BAE16",
"5  c #2EAC1A",
"6  c #2CA716",
"7  c #35AD1A",
"8  c #38A31C",
"9  c #35B31A",
"0  c #3CB41E",
"q  c #3FA220",
"w  c #2FB12B",
"e  c #3CB32B",
"r  c #43A21F",
"t  c #469F23",
"y  c #74953B",
"u  c #44A422",
"i  c #4DA424",
"p  c #4AAD25",
"a  c #46A923",
"s  c #41B721",
"d  c #46BB23",
"f  c #4EBF27",
"g  c #4DB72B",
"h  c #5EA330",
"j  c #47BC30",
"k  c #53BE3D",
"l  c #7CAB3C",
"z  c #6FB036",
"x  c #55C22A",
"c  c #5BC52D",
"v  c #65CA32",
"b  c #6ACE37",
"n  c #6CCE3B",
"m  c #62C938",
"M  c #4DBF4D",
"N  c #5CC75B",
"B  c #6BCC4A",
"V  c #7AD54F",
"C  c #74D443",
"Z  c #69CB56",
"A  c #7AD451",
"S  c #76D051",
"D  c #72D36E",
"F  c #77D671",
"G  c #7BD670",
"H  c #98824E",
"J  c #9D8751",
"K  c #A68E55",
"L  c #AB9257",
"P  c #AE9558",
"I  c #A59E55",
"U  c #B0975A",
"Y  c #B49A5B",
"T  c #BA9E5C",
"R  c #80A741",
"E  c #8DBF5D",
"W  c #95AB4B",
"Q  c #A7BD4D",
"!  c #BDA15E",
"~  c #BCA85B",
"^  c #ACBC52",
"/  c #B0BF54",
"(  c #BDA462",
")  c #C2A55E",
"_  c #C3A662",
"`  c #C6AA65",
"'  c #CBAC64",
"]  c #C0AB6C",
"[  c #CBB566",
"{  c #CDB36A",
"}  c #CEB96A",
"|  c #D6B465",
" . c #DAB766",
".. c #D3B46B",
"X. c #D2BB6B",
"o. c #DBBA6D",
"O. c #D7B967",
"+. c #C9B372",
"@. c #D7BC71",
"#. c #E1BE6C",
"$. c #81CC4D",
"%. c #84D559",
"&. c #80D457",
"*. c #B4C355",
"=. c #81DD64",
"-. c #89E473",
";. c #89E965",
":. c #C2CF5C",
">. c #C5D15C",
",. c #DAC16A",
"<. c #D5C173",
"1. c #DDC574",
"2. c #DDCA76",
"3. c #DAC17B",
"4. c #DFCD7B",
"5. c #E5C16D",
"6. c #EBC56D",
"7. c #EFC86F",
"8. c #F1CA6F",
"9. c #ECD46D",
"0. c #E4C472",
"q. c #E2CA76",
"w. c #E4CE79",
"e. c #E9CA73",
"r. c #F5CD71",
"t. c #F8CF72",
"y. c #E6D17A",
"u. c #E9D57C",
"i. c #EDDB7E",
"p. c #FFD575",
"a. c #F7D174",
"s. c #89DE86",
"d. c #95E38B",
"f. c #A2F481",
"g. c #ABF58F",
"h. c #B2F59B",
"j. c #AEF1AB",
"k. c #BBF8AA",
"l. c #B8F6B3",
"z. c #DCC683",
"x. c #DFC883",
"c. c #C1DE92",
"v. c #E2CC89",
"b. c #EEDD80",
"n. c #EAD88C",
"m. c #F0DF80",
"M. c #FFDC84",
"N. c #FEDF8B",
"B. c #F6DA89",
"V. c #ECDC93",
"C. c #E9D99B",
"Z. c #E7D996",
"A. c #F3E382",
"S. c #F6E984",
"D. c #F9ED86",
"F. c #F2E48C",
"G. c #F5E98F",
"H. c #FBF087",
"J. c #FDF288",
"K. c #EEE29A",
"L. c #EEE097",
"P. c #F7EB91",
"I. c #F8EE93",
"U. c #F0E49D",
"Y. c #FEE99F",
"T. c #FEE699",
"R. c #FBF295",
"E. c #FEF699",
"W. c #FEF89D",
"Q. c #EDDFA1",
"!. c #C5F9BB",
"~. c #EEE3A3",
"^. c #F0E5A1",
"/. c #F5EDAD",
"(. c #F7E9A7",
"). c #FFF5A8",
"_. c #F5EDB1",
"`. c #F6EFB8",
"'. c #ECF2B5",
"]. c #F7F1B4",
"[. c #FBF3B5",
"{. c #FAF5BB",
"}. c #FEFABA",
"|. c #FDFAB7",
" X c #CBFCC6",
".X c #D1FCCC",
"XX c #D2F0C7",
"oX c #DDFBD9",
"OX c #FCFAC2",
"+X c #FEFECA",
"@X c #E9FCE5",
"#X c #F1FCEE",
/* pixels */
"            2.1.<.3...{ ....                                                                    ",
"            2.}.K.y.K.+X_._.C.C.v.z.........                                                    ",
"            2.).OXOXL.w.v.B.F.Y.(.[.}.+X`._.~.C.v.z.@...{ ..                                    ",
"            2.J.J.W.|.OXK.w.e.a.p.p.p.p.p.N.N.Y.Y.[.[.OX{._.~.C.Z.z.3.{                         ",
"            2.J.J.J.J.W.|.OX~.4.e.a.p.p.p.p.p.p.p.p.p.p.p.M.N.T.(.).OX(.'                       ",
"            4.J.J.J.J.J.J.E.|.OXK.<.e.p.p.p.p.p.p.p.p.p.p.p.p.p.p.p.M.OX`                       ",
"            4.J.J.J.J.J.J.J.J.J.}.[.` p.p.p.p.p.p.p.p.p.p.p.p.p.p.p.p.OX(                       ",
"            2.J.J.J.J.J.J.J.J.J.R.OX( p.p.p.p.p.p.p.p.p.p.p.p.p.p.p.p.OXI                       ",
"            2.J.J.J.H.J.J.J.J.J.R.OX! p.p.p.p.p.p.p.p.p.p.p.p.p.p.p.p.'.: #                     ",
"            2.J.H.J.J.D.D.J.D.H.R.{.Y p.p.p.p.p.p.p.p.p.p.p.p.p.p.p.p.c.= 1 % #                 ",
"            2.H.J.J.D.D.J.D.J.D.R.OXY t.a.p.p.p.p.p.p.p.p.p.p.p.p.p.p.OXy * < % #               ",
"            2.H.D.D.J.D.D.D.D.D.I.{.U 8.t.t.t.p.p.p.p.p.p.p.p.p.p.p.p.{.Y   * * $ #             ",
"            2.H.D.D.D.D.D.D.D.D.I.{.U a.a.8.t.t.p.p.p.p.p.p.p.p.p.p.p.{.Y   3 , & $ +           ",
"            2.D.D.D.D.D.D.D.D.S.I.{.U e.8.a.t.t.p.p.p.p.p.p.p.p.p.p.p.{.U     2 & & #           ",
"            2.H.D.S.D.D.S.D.D.D.I.{.U 8.r.8.a.a.p.p.p.p.p.p.p.p.p.p.p.|.U     Z , & $ +         ",
"            2.H.D.D.S.S.S.S.S.S.I.{.U 7.8.8.8.a.p.p.p.p.p.p.p.p.9.9.p.].U     c N & & +         ",
"            2.S.S.S.S.D.D.S.S.S.G.[.U 7.8.8.8.r.p.p.p.p.p.p.p.>.b c Q ].U     v N & & @ +       ",
"            2.D.S.S.S.S.S.A.S.S.G.[.U 6.6.6.6.r.p.p.p.p.p.p.>.b f.d.i ].U     v F & & $ +       ",
"            2.S.S.S.S.A.A.S.S.S.P.].U 5.6.6.6.8.p.p.p.p.p.>.b g.!.k i _.U     b F & & & +       ",
"            2.S.S.A.S.S.A.A.A.A.G.[.Y 5.6.6.6.8.p.t.p.p.>.b h..XB 0 i [.U     m s.& & & +       ",
"            2.S.A.S.A.A.A.A.A.A.F.].U 5.5.5.6.6.t.p.p.>.b k.oXC f 0 i /.Y   v -.N & & & +       ",
"            2.A.A.A.A.A.A.A.A.A.F.].U 5.#.5.6.6.p.p.>.n !.oXS x f 0 i /.W b ;.l.* & & & +       ",
"            2.A.A.A.A.A.A.A.A.A.F._.Y ,.#.5.5.6.t.>.V !.@XA c x f 9 r $.C -.k.w & & & & +       ",
"            2.A.A.A.A.A.b.A.m.A.F._.U O. .#. .6.:.A  X#X%.c c x x 6 > ;.!.l.w , & & & & +       ",
"            2.A.A.m.A.A.m.A.A.i.F./.P  . .#.#.*.A .X#X%.v c c x d e D j.F 4 < , & & & $ +       ",
"            2.A.A.m.b.i.m.i.i.A.B.(.U  . . ./ V .X#X%.v v v c x x x Z j 4 3 < , & & & $ +       ",
"            2.i.m.m.m.m.i.i.m.b.F./.Y | | ^ A .X#X%.v b v c c x f d s 9 4 3 < , & & & @         ",
"            2.A.m.m.i.i.i.m.i.i.n./.Y ) ^ V .X#X%.v v v v v c x x d s 9 4 3 < , & & & +         ",
"            2.i.m.i.m.i.i.i.b.u.b.~.Y [ v  X#X%.v v v v v c c c x d 9 9 4 1 < , & & & +         ",
"            2.b.i.i.i.i.i.i.u.b.4.! ) ) f XX%.v b v b b v v c x d d 0 9 4 1 < * & & #           ",
"            2.i.i.i.i.i.u.i.i.U.{ ) ' ) z B b v v v v v v v c x x d 0 9 4 3 < , & @ +           ",
"            2.i.i.i.u.u.i.u.u.U.] ) ) ) ) p s v b v v v v c c x x d 0 9 4 3 < < $ #             ",
"            2.i.i.u.u.u.u.u.u.U.] ) ) ) ) | g s b v v v v v c x f d s 9 4 3 < % #               ",
"            2.u.i.u.u.u.u.u.u.U.] T T ! ) #.,.p s v b v v c c x f d 0 9 4 1 = ;                 ",
"            2.u.u.u.u.u.y.u.u.L.] Y T T T #.#.@.p s v v v v c x x d 0 4 - - E U                 ",
"            <.u.u.u.u.u.y.y.u.L.] U Y Y T o.#.#.O.i s v v c c x x s - : l o.^.U                 ",
"            <.u.u.u.y.u.y.w.w.L.] U U U Y o.o.#.5.X.a 0 v v c x d 9 t 0.0.0.^.U                 ",
"            X.u.y.y.y.w.w.w.y.L.] P P P U o.o.o.o.#.X.u 0 c c x f 0 i #.#.#.^.U                 ",
"            } u.y.y.w.w.w.w.w.L.] K K P P ..o.@.o.o.o.} u 7 c x f 9 t #.#.#.^.U                 ",
"            { 2.y.w.w.w.w.w.w.V.] K K K K ' ....o.o.o.o.} 8 7 c f 0 t #.#.#.^.U                 ",
"              ( X.w.w.w.q.q.q.Z.] J K K K ] ......o...o.o.{ u 6 f 7 t o.o.o.U.U                 ",
"                Y X.w.w.q.q.q.V.] X o O J ` ................{ 8 6 0 t o.@.o.K.P                 ",
"                  U X.w.w.1.q.V.]         P Y ( ` ..{ ........[ h = R ......K.Y                 ",
"                    P { 1.0.1.V.]                 P T _ ` ..................Z.P                 ",
"                        { 2.1.V.(                       U Y ( _ { ......Y J H .                 ",
"                          ' @.V.]                               U Y ( _ K                       ",
"                            ` V.(                                                               ",
"                              +.                                                                "
};
