/* XPM */
static const char *pdfx[] = {
/* columns rows colors chars-per-pixel */
"48 48 199 2 ",
"   c None",
".  c #7F0101",
"X  c #7A0B04",
"o  c #6D1300",
"O  c #691D03",
"+  c #731504",
"@  c #662504",
"#  c #6C2605",
"$  c #742405",
"%  c #7C2506",
"&  c #7F2308",
"*  c #752806",
"=  c #840505",
"-  c #8B0505",
";  c #8C0808",
":  c #940606",
">  c #9B0606",
",  c #930808",
"<  c #9C0909",
"1  c #9B1919",
"2  c #A30707",
"3  c #AB0606",
"4  c #A30B0B",
"5  c #AC0B0B",
"6  c #B40202",
"7  c #BC0202",
"8  c #B30808",
"9  c #BC0808",
"0  c #AB1111",
"q  c #AE1F1F",
"w  c #A41616",
"e  c #B41313",
"r  c #BC1313",
"t  c #B71B1C",
"y  c #BB1D1D",
"u  c #842706",
"i  c #8B2706",
"p  c #832408",
"a  c #8C2509",
"s  c #922706",
"d  c #962807",
"f  c #9B2807",
"g  c #93270B",
"h  c #9B270B",
"j  c #9C2908",
"k  c #A12907",
"l  c #AC2C06",
"z  c #A5290B",
"x  c #AC2A08",
"c  c #BA2303",
"v  c #B62709",
"b  c #B52909",
"n  c #BA290A",
"m  c #BD2709",
"M  c #A63008",
"N  c #AE2E13",
"B  c #B42E13",
"V  c #B92E12",
"C  c #B93118",
"Z  c #BA3115",
"A  c #AB2A2A",
"S  c #A92525",
"D  c #B52222",
"F  c #B12828",
"G  c #BD2A2A",
"H  c #AA3636",
"J  c #B43939",
"K  c #BE3F3F",
"L  c #BD3434",
"P  c #C40202",
"I  c #CC0303",
"U  c #C40909",
"Y  c #CC0A0A",
"T  c #D30202",
"R  c #DC0202",
"E  c #D40A0A",
"W  c #DC0A0A",
"Q  c #C41414",
"!  c #C51C1C",
"~  c #CC1919",
"^  c #C81616",
"/  c #D41D1D",
"(  c #DC1F1F",
")  c #E40202",
"_  c #EA0303",
"`  c #E40B0B",
"'  c #EB0C0C",
"]  c #F10606",
"[  c #F40D0D",
"{  c #EE1212",
"}  c #EC1D1D",
"|  c #E41919",
" . c #F41415",
".. c #F31E1E",
"X. c #C3270A",
"o. c #C42828",
"O. c #CB2C2C",
"+. c #C52323",
"@. c #D32D2D",
"#. c #DB2D2D",
"$. c #D42525",
"%. c #C43D3D",
"&. c #CB3A3A",
"*. c #D43232",
"=. c #D73838",
"-. c #E42324",
";. c #EE2222",
":. c #E42E2E",
">. c #EA2E2E",
",. c #F32626",
"<. c #F42C2C",
"1. c #EB3535",
"2. c #EE3D3D",
"3. c #E53535",
"4. c #F43333",
"5. c #F23A3A",
"6. c #A54646",
"7. c #B44545",
"8. c #AC5B5B",
"9. c #B45A5A",
"0. c #B85353",
"q. c #AF6D6D",
"w. c #B36D6D",
"e. c #B86E6E",
"r. c #C44343",
"t. c #CF4141",
"y. c #C24B4B",
"u. c #C94B4B",
"i. c #DA4040",
"p. c #DD4D4D",
"a. c #CB5454",
"s. c #C85A5A",
"d. c #D25A5A",
"f. c #DB5959",
"g. c #D45555",
"h. c #EB4747",
"j. c #F24949",
"k. c #E35A5A",
"l. c #E35555",
"z. c #F45354",
"x. c #F65C5C",
"c. c #CE6666",
"v. c #C56464",
"b. c #D36E6E",
"n. c #D86666",
"m. c #CC7F7F",
"M. c #CE7171",
"N. c #D37171",
"B. c #D87070",
"V. c #E66262",
"C. c #EC6262",
"Z. c #F56565",
"A. c #F37B7B",
"S. c #BF8E8E",
"D. c #C48E8E",
"F. c #C88F8F",
"G. c #D78080",
"H. c #DB8383",
"J. c #D78A8A",
"K. c #D98B8B",
"L. c #C79D9D",
"P. c #CB9D9D",
"I. c #DD9393",
"U. c #DB9A9A",
"Y. c #E88C8C",
"T. c #F48383",
"R. c #F68D8D",
"E. c #E19A9A",
"W. c #F99494",
"Q. c #F49B9B",
"!. c #F09393",
"~. c #D1ABAB",
"^. c #DDA3A3",
"/. c #D7B8B8",
"(. c #DAB9B9",
"). c #E3A3A3",
"_. c #F8A2A2",
"`. c #E4B2B2",
"'. c #EBB3B3",
"]. c #EBBCBC",
"[. c #F9B7B7",
"{. c #F5BFBF",
"}. c #ECC5C5",
"|. c #EDCACA",
" X c #F6C5C5",
".X c #FCC7C7",
"XX c #F1CDCD",
"oX c #FACBCB",
"OX c #E6D2D2",
"+X c #EFD2D2",
"@X c #F3D4D4",
"#X c #F4DBDB",
"$X c #FBDBDB",
"%X c #F5E4E4",
"&X c #F6EAEA",
"*X c #FAEAEA",
"=X c #FCE5E5",
"-X c #FBF3F3",
";X c #FFFEFE",
/* pixels */
"                                                                                                ",
"      l c c c c c v n n b b b n b n v n n n n v n n X.n n n n n m X.m n n X.m m n m n m b       ",
"    l ] ]  .,.<.<.4.4.4.4.5.4.5.4.4.4.4.4.4.4.4.4.4.4.4.4.5.4.4.<.4.4.<.4.<.<.,.,.,... .[ X.    ",
"  M ' ' 5.x.x.Z.Z.Z.Z.Z.Z.Z.Z.Z.Z.Z.W.oXoXW.Z.Z.Z.Z.Z.Z.Z.Z.Z.Z.Z.Z.Z.x.x.x.x.z.j.j.5.1.;.[ b   ",
"  b ' 5.z.,.] ] ' { { | { | { | | ..-X[._.*X;.{ { {  .{  . .{ { { { { { {  .' {  .'  .} >.} n   ",
"  x } C.,._ _ _ _ ' ' ' ' ' ' ' ' 5.;XT.,.$XR.' ' ' ' ' [ ' ' ' ' ' ' ' ' ' ' ' ' ' ' ' } ;.V   ",
"  b >.Z.' _ _ _ _ ' ' ' ' ' ' ' ' j.;XA.' A.oX' ' ' ' ' ' ' ' ' ' ' ' ' ' ' ' ' ' ' ' ' ' -.V   ",
"  x :.Z._ _ _ _ ` ` ` ` ` ` ` ` ` h.;XT.` 2.oX' ` ` ` ' ` ` ' ` ` ' ` ` ' ` ' ` ' ` ' ` ` -.V   ",
"  x :.C.` ) ) _ ` ` ` ` | ` ` ` ` 1.;XQ.` 3.oX` ` ` ` ` ` ` ` ` ` ` ` ` ` ` ` ` ` ` ` ` ' -.C   ",
"  x >.C.` ) ) ) ) ) ` W W ` ` ` ` | -X{.W Q._.` ` ` ` ` ` ` ` W ` ` ` ` W ` ` ` ` W ` ` ` -.C   ",
"  x :.C.` R ) R ) W W W ` W W W W ` oX=X3.$Xh.W W W ` W W W W ` ` W ` W W ` W W W ` ` W W :.B   ",
"  z #.C.) R R R W W W W W W W W W E !.;X X$XR W W W W W W W W W W W E ` W W W W W E W W ` $.B   ",
"  z #.V.W R R R R E E W E W W W E W l.;X-XY.W W E W E E W W R E W E W W R W E E W W W E W ( B   ",
"  k #.V.E R R R R E E E E E E E E W =.;X;Xl.W E E W E E E W W E E E E E E W E E E E W E W ( B   ",
"  k #.V.E T T T E E E E E E E E E E ( *X;X#.E E E E E E E E E E E E E E E E E E E E E E E $.N   ",
"  k @.l.E T T T T E Y E E E E E E E E {.;Xk.E E E E E E E Y E E E Y E E E E E E Y E E E Y ( B   ",
"  f $.l.E T I T E Y Y Y Y E Y Y Y E / %X;X XY E Y Y Y Y E Y Y Y Y E Y Y E Y Y E Y Y E Y Y $.N   ",
"  f / i.I I I I I Y Y Y Y ^ Y Y Y Y f.;X*X;Xp.Y Y Y Y Y Y Y Y Y Y Y Y Y Y Y Y Y Y Y Y Y Y / N   ",
"  f ~ *.I I I I I Y Y Y Y Y Y Y Y Y oX Xf.;X'.Y Y Y U Y Y Y Y Y Y U Y Y Y Y Y Y Y Y Y U Y / z   ",
"  f ~ @.I P I P P U U Y U U Y U U f.;Xd.U {.;Xn.U Y Y U U Y U U Y U U U U U U U U U Y U Y ~ z   ",
"  d ~ O.P P P P P U U U U U U U Q $X&XQ U ! $X-X&.U U U U U U U U U U U U U U U U U U U U Q z   ",
"  s ~ O.P P P 7 P U U 9 U U U 9 t.;XY.U U U g.;X@XQ 9 U 9 U 9 U U U 9 U 9 U U U U 9 P U U Q h   ",
"  s Q O.P 7 7 7 P 7 9 9 9 9 9 9 }.*X! 9 9 9 9 d.;X@X&.U 9 9 9 U 9 9 9 U 9 9 9 9 9 9 9 9 9 Q h   ",
"  g r O.7 7 7 7 7 9 9 9 9 9 9 d.;XB.9 9 9 9 9 9 n.;X-Xb.9 9 9 7 9 Q r 9 9 9 9 9 9 9 9 9 9 r h   ",
"  s r o.7 7 7 6 7 9 8 9 9 8 9 @X*Xr 9 9 9 9 9 9 9 a.-X;X].).'.XX#X@X@XXXXX].H.y 9 8 8 9 9 r g   ",
"  i r +.8 6 6 6 6 8 8 9 9 8 u.;Xm.8 8 8 8 t a.E.@X*X-X%X;X;X;X).u.%.u.b.E.].XXXXb.9 8 8 8 r g   ",
"  i e y 6 6 6 6 6 8 8 8 8 e #XXX9 9 r.I.`.}.].I.N.a.o.e %.I.*X-X`.b.y 8 8 8 r.).).8 8 8 8 r g   ",
"  i 0 t 3 6 3 6 6 8 8 8 8 G.;Xb.c.].}.I.a.y 8 8 8 5 5 8 8 3 G K.&X;X;X#XK.s.c.K.}.8 8 3 8 e g   ",
"  i 5 e 3 3 6 3 3 3 3 3 e *X&XN.c.L 8 3 3 3 8 3 8 3 8 5 3 3 8 3 e r.^.-X-X;X;X;X*X3 3 8 3 e g   ",
"  u 5 e 3 3 3 3 3 3 8 3 I.;Xy.3 5 3 5 3 5 3 3 5 3 3 3 3 3 5 3 3 5 3 3 D J.'.I.K F 3 3 3 3 0 a   ",
"  u 3 0 3 3 3 3 2 a.b.0.;XJ.3 3 3 3 3 3 3 3 3 3 3 3 3 3 3 3 3 3 3 4 3 3 4 3 3 4 4 3 3 4 3 0 a   ",
"  u 4 3 2 2 2 3 U.`.0 }.-XN 2 4 4 3 2 2 2 3 4 2 2 4 4 2 4 3 2 4 3 2 2 4 2 2 3 2 2 3 2 2 4 0 a   ",
"  % 5 0 2 2 D +X^.4 m.;Xv.2 2 2 2 2 2 2 2 2 2 2 2 2 2 2 2 2 2 2 2 2 2 2 2 2 2 2 2 > 2 2 2 0 p   ",
"  % 4 w > J ;X].> J ;X(.2 2 2 > < 2 2 2 2 < < 2 2 > 2 2 > 2 2 2 > 4 2 > 2 2 > 4 > 2 > 4 > 4 p   ",
"  % 4 4 A -X%X1 w #X&XS < > > < > > > > > > > > > > OX;X;X;XF.P.;X;X;XP.> F.;X;X;XOX> > < < p   ",
"  % < 4 #X;XS < |.;X7.> > > > > > > > > > > > > > > OXe.> 9.-XP.P.> 6.-Xe.D.(.> > > > : < < &   ",
"  * > < -X%XJ #X;X0.> : > > : : : > : > > : > : > : OXw.: 9.-XP.P.> : ~.P.D./.: > : > : : < &   ",
"  * , > m.%X&X}.H : : : , : > : : : : : : : : : : : OX;X;X;XD.L.P.: , L.P.D.;X;X;XD.: : : , &   ",
"  * , : - A 9.1 - : : : : , , , : : : : , : : : , : OXw., : : L.P., , ~.P.D./., - : : : - , $   ",
"  * , , - - - - - : : - : - : - : - - : - - - - - : OXq.- : - L.L.- 6.%X8.S./.- : - - - : , %   ",
"  $ - , - - - - - - - - - - - - - - - - - - - - ; - OXq.- - ; L.;X;X;XL.; S./.- - - - - - , $   ",
"  $ - - = = = - - - - - - - - - - = - - - - - = - - - - - - - ; - - - = = ; ; - - - = - ; ; $   ",
"  # - - - = = = = = - - ; - - = ; = = ; - ; = ; = = = = = ; = = = = = - = = = ; = = = - - ; O   ",
"  # = - = = . = = = = = = = = = = = = = = = = = = = = = = = = = = = = = = = = = = = = = = ; $   ",
"  @ = = = = . . = . = = = X = = = . = X = . X = = . = . = X = = = = = . X = . X X . = = ; = @   ",
"    + X = = = - = - = ; = - ; = ; ; ; ; ; ; ; ; = ; ; ; ; = = = = = ; ; ; ; ; = ; ; = ; = X     ",
"      @ o o + + + + + + + + + + + + + + + + + + + + O + + + + + + + + + + + + + + + + O O       ",
"                                                                                                "
};
