/* XPM */
static const char *savex[] = {
/* columns rows colors chars-per-pixel */
"48 48 83 1 ",
"  c None",
". c #1F2B3B",
"X c #202C3B",
"o c #37414D",
"O c #2E4158",
"+ c #3D4957",
"@ c #31445D",
"# c #334760",
"$ c #334861",
"% c #414D5C",
"& c #475363",
"* c #455D7C",
"= c #515F70",
"- c #546172",
"; c #586576",
": c #576679",
"> c #5E6D7F",
", c #656C75",
"< c #445F81",
"1 c #466284",
"2 c #496589",
"3 c #4B698E",
"4 c #5A6B80",
"5 c #5E7084",
"6 c #506D90",
"7 c #667587",
"8 c #6D7783",
"9 c #6F7985",
"0 c #667589",
"q c #68778B",
"w c #66798F",
"e c #69798E",
"r c #717B87",
"t c #6B7D93",
"y c #6E8097",
"u c #6F8298",
"i c #708196",
"p c #72859B",
"a c #75899E",
"s c #7387A1",
"d c #778AA0",
"f c #7A8DA3",
"g c #7D91A6",
"h c #7F93A8",
"j c #888F98",
"k c #9F9F9F",
"l c #8392A2",
"z c #8195AA",
"x c #8699AE",
"c c #889BAF",
"v c #879BB0",
"b c #8B9EB3",
"n c #8DA1B7",
"m c #8FA2B8",
"M c #90A1B4",
"N c #92A5BB",
"B c #96A9BE",
"V c #9CADBF",
"C c #A5A5A5",
"Z c #ADADAD",
"A c #B4B4B4",
"S c #BBBBBB",
"D c #97ABC0",
"F c #9BADC2",
"G c #9EB1C5",
"H c #9FB5C9",
"J c #A2B3C5",
"K c #A5B6C9",
"L c #A7B8CA",
"P c #AABBCD",
"I c #AEBFD1",
"U c #AFC1D2",
"Y c #B0C2D4",
"T c #C3C3C3",
"R c #CACACA",
"E c LightGray",
"W c #DADADA",
"Q c #FAD4C6",
"! c #E6E6E6",
"~ c #EBEBEB",
"^ c #F3F3F3",
"/ c #F5F7F8",
"( c #FEFBFA",
/* pixels */
" 33222<1pppspststptstttttttteeeeqq7q77#@@#@OO   ",
"3GYYYY&IQQQQQQQQQQQQQQQQQQQQQQQQQQQQQQKKJLLLnO  ",
"3YYYYY&GQQQQQQQQQQQQQQQQQQQQQQQQQQQQQQxxJvvvLO  ",
"3Y333Y&FQQQQQQQQQQQQQQQQQQQQQQQQQQQQQQffKo%%LO  ",
"3Y3  Y&FQQQQQQQQQQQQQQQQQQQQQQQQQQQQQQlfH+44KO  ",
"3Y3  U&D((((((((((((((((((((((((((((((ffK%44KO  ",
"3YYUUI&D((((((((((((((((((((((((((((((ffHfffKO  ",
"3YKKJJ&DQQQQQQQQQQQQQQQQQQQQQQQQQQQQQQfaHfffKO  ",
"3UHGGF&D(((((((((((^(((((((((/((((((((aaHdagLO  ",
"3UGGFF&D(((((((/((((((((((((((((((((((aaHffaJO  ",
"3IFFFD&NQQQQQQQQQQQQQQQQQQQQQQQQQQQQQQpaHfgaKO  ",
"3IGDFD&N((((((((((((((((((((((((((((((aaHaddJO  ",
"3IFDDD&N(((((/(((((((((^((((((((((((((aaHfadKO  ",
"3IFDDD&NQQQQQQQQQQQQQQQQQQQQQQQQQQQQQQpaHadaJO  ",
"3IFDDB&m((((((((((((((((((((((/(((((((apHfaaJO  ",
"3IDDNB&b(((/((/((((^((((((((((((((((((apHaaaJO  ",
"2IBBDN&mQQQQQQQQQQQQQQQQQQQQQQQQQQQQQQapJaaaJO  ",
"3IBBNN&b((((((((((((((((((((((((((((((ppHaapJO  ",
"3INNNN&b((((((((((((((^(((((((((((((((ipGaapJO  ",
"3INNNm&bQQQQQQQQQQQQQQQQQQQQQQQQQQQQQQpiHaapJ@  ",
"3ImNmm&b((((((((((((((((((((((((((((((puHappJO  ",
"3INmNM&v(((((((((^((((((((^((^((((((((uuHpppVO  ",
"2ImmMn&cQQQQQQQQQQQQQQQQQQQQQQQQQQQQQQuuHpppJO  ",
"3ImmMc&c^((((((((((((((((((((((((((((^uuHpppJO  ",
"3Innbn&gxxhhfgffgfdfdddapaaaaappppupuuuaJappJO  ",
"3Innbb-4ghgfffffddfdfdddaaaapppppppuuuanGppiGO  ",
"3IbbnbbFHHHHHHHHHHHHHHHHJGJHHHHHHHHHHHHGguipGO  ",
"3LbbbvzhhhhghhhfgggfffffffdddaaaaapapppppuiiGO  ",
"3PnbxzhzhhhhggggggfffffddddddaapdppppuuuuuuuGO  ",
"3PcxzhhhhgggggfgffgdfffdddddaaaapppppppupuuuGO  ",
"3Pzzhzhhghgg=&&&&&&&&&&&&&&&&&&&&&&&&&&;DuuyJO  ",
"3Pzhzhhhgggg&:55555555555>55555>55555550HyyyGO  ",
"3Phhhhhhggfg&y^((((^!!!~^^(((/^^^//^wwwwHuyyDO  ",
"3Lhhhggggggg&y((((/~!!!!!^((/^~~~~^(&wwwHyytGO  ",
"3Phhghghggag&w(((,998j!!~^/(/^~~~~^(+wwwHyyyGO  ",
"3Phhhggggggf&t(((+wwwf~!~^((^^~!~^^(+wwwHyytVO  ",
"3Phggggagfff&w(((+twwl~!~/((/^~!~^/(+wwwHyttVO  ",
"3Lggggggfgff&w(((+wwwl~!~/(//~!~~^/(+wwwHtytGO  ",
"3Pgggfggffff&w(((+wwwl~!^/((^^!!~^^(+wwwHtttVO  ",
"3Kggggaggfff&t(((+wwql~~^^(/^~!~^^/(+wwwHtttVO  ",
"3Lzgfgfffffa&w(((+twwl~~^((/^~!~^/((+wwwHtttBO  ",
"3BGgffffffff&w(((+wwwl~~^((/^~!~~^/(+wwwHttwVO  ",
" 6BVgfffdfaa&w((^+wwwl~~^/(/^~!~^^(/+wwwHtwtVO  ",
"  6NJgfffafa&w^(~+wwwzW~^((^~~!~^^(~+wwwHwtuVO  ",
"   6NKKKKJKJ&wW(ERTSSTR~/((/~~~~^^(W+wwwJVVVxO  ",
"    22211111**SSAZZkCZZAASSAAZZAAAAS.$###@O@OX  ",
"                                                ",
"                                                "
};
