/* XPM */
static const char *slowx[] = {
/* columns rows colors chars-per-pixel */
"48 48 256 2 ",
"   c #030203",
".  c #02010B",
"X  c #07070B",
"o  c #190207",
"O  c #020213",
"+  c #01031A",
"@  c #040A19",
"#  c #0A1216",
"$  c #2F0810",
"%  c #092C0B",
"&  c #010123",
"*  c #020B25",
"=  c #01022C",
"-  c #060B29",
";  c #02132C",
":  c #08162A",
">  c #000234",
",  c #030937",
"<  c #011C34",
"1  c #01133D",
"2  c #021B3B",
"3  c #071636",
"4  c #191528",
"5  c #2A1A29",
"6  c #052539",
"7  c #0C2C36",
"8  c #302B39",
"9  c #691210",
"0  c #4F2D31",
"q  c #661D20",
"w  c #6F4D3E",
"e  c #021B42",
"r  c #031B4C",
"t  c #061646",
"y  c #08154E",
"u  c #032343",
"i  c #02254B",
"p  c #032A4D",
"a  c #0B2748",
"s  c #162848",
"d  c #09334A",
"f  c #163448",
"g  c #042C53",
"h  c #072955",
"j  c #172857",
"k  c #033254",
"l  c #073658",
"z  c #153756",
"x  c #30344D",
"c  c #083663",
"v  c #103266",
"b  c #2D3C68",
"n  c #493746",
"m  c #6C3145",
"M  c #194459",
"N  c #12474F",
"B  c #334F54",
"V  c #30685D",
"C  c #0B4869",
"Z  c #194666",
"A  c #145170",
"S  c #2D536F",
"D  c #336572",
"F  c #1C6A6D",
"G  c #4A5252",
"H  c #714C51",
"J  c #517856",
"K  c #6A6C4F",
"L  c #4E546A",
"P  c #506B6F",
"I  c #716E71",
"U  c #735B6E",
"Y  c #B02D14",
"T  c #89312A",
"R  c #B43330",
"E  c #8E211A",
"W  c #C8240D",
"Q  c #C82613",
"!  c #D12E15",
"~  c #E82818",
"^  c #E5341A",
"/  c #C82D29",
"(  c #CB342A",
")  c #D83626",
"_  c #D83A35",
"`  c #CB3334",
"'  c #EC3E2C",
"]  c #E73929",
"[  c #FC3C2A",
"{  c #F43E29",
"}  c #ED3C31",
"|  c #E83D3A",
" . c #FC3D3B",
".. c #F63D35",
"X. c #E02022",
"o. c #D71F1B",
"O. c #8D4F39",
"+. c #B64935",
"@. c #DB4737",
"#. c #C94134",
"$. c #ED422D",
"%. c #EC4326",
"&. c #F4422C",
"*. c #F9432D",
"=. c #F4452B",
"-. c #EC4234",
";. c #E3443B",
":. c #EC443B",
">. c #E3493C",
",. c #EC493C",
"<. c #E64635",
"1. c #F34233",
"2. c #F4433B",
"3. c #FC433C",
"4. c #F94836",
"5. c #ED401F",
"6. c #9E3753",
"7. c #F73F45",
"8. c #EF3D4A",
"9. c #D33E54",
"0. c #934F4B",
"q. c #B25959",
"w. c #B2504C",
"e. c #896959",
"r. c #90624F",
"t. c #8C586C",
"y. c #AD5A6C",
"u. c #8F726E",
"i. c #B26B6E",
"p. c #B16657",
"a. c #DA4A48",
"s. c #C65358",
"d. c #D1504F",
"f. c #EB4A43",
"g. c #EC4B4C",
"h. c #E74846",
"j. c #FC4442",
"k. c #F44B4B",
"l. c #FA4A4B",
"z. c #F44744",
"x. c #E9514A",
"c. c #F7544B",
"v. c #E84B57",
"b. c #E85357",
"n. c #F45556",
"m. c #F94A54",
"M. c #CD6454",
"N. c #FC615C",
"B. c #DA5764",
"V. c #E95968",
"C. c #F25266",
"Z. c #DC6876",
"A. c #D2696F",
"S. c #EB6677",
"D. c #F66C73",
"F. c #718C72",
"G. c #858D7A",
"H. c #345B84",
"J. c #306A8A",
"K. c #186482",
"L. c #537291",
"P. c #747891",
"I. c #5D6E9C",
"U. c #8F758F",
"Y. c #8678A2",
"T. c #B87A8C",
"R. c #D67689",
"E. c #ED6C85",
"W. c #F77889",
"Q. c #EA7D95",
"!. c #F87B98",
"~. c #EB7688",
"^. c #F77EA3",
"/. c #DB7BA1",
"(. c #37AAB6",
"). c #4B8296",
"_. c #768E95",
"`. c #5998B4",
"'. c #4B8CAD",
"]. c #7795AA",
"[. c #7BA1B0",
"{. c #71ACC7",
"}. c #5DA1C0",
"|. c #7CF7F4",
" X c #71D0E0",
".X c #8D9191",
"XX c #AB8996",
"oX c #8C8BAC",
"OX c #8DA9B0",
"+X c #B2ADA8",
"@X c #BB84A2",
"#X c #D28796",
"$X c #C8959B",
"%X c #EA8597",
"&X c #FB839B",
"*X c #F6879B",
"=X c #F88B94",
"-X c #CBB098",
";X c #CA8AA6",
":X c #D693A6",
">X c #EB8AA8",
",X c #FB85A4",
"<X c #F38BA5",
"1X c #FB8AA4",
"2X c #FA85AB",
"3X c #F48AAB",
"4X c #FC8BAB",
"5X c #F585A5",
"6X c #E898A6",
"7X c #F891A7",
"8X c #F88CB3",
"9X c #EC93B5",
"0X c #FA95B7",
"qX c #ED8CB2",
"wX c #CDA7AD",
"eX c #FCA6B7",
"rX c #F8ADB0",
"tX c #BEC2BC",
"yX c #D9C7B3",
"uX c #8BB0C9",
"iX c #ACB9D2",
"pX c #F4ABC5",
"aX c #93C7D6",
"sX c #ABCCD3",
"dX c #91CDE4",
"fX c #B0CDE6",
"gX c #8CF8FB",
"hX c #B9FBFD",
"jX c #B4F0F5",
"kX c #CCD9DD",
"lX c #F3D4CF",
"zX c #CDDEEB",
"xX c #C3D9EB",
"cX c #D6DFED",
"vX c #CCDDF3",
"bX c #DDDDF2",
"nX c #E8DEF7",
"mX c #CDE4EC",
"MX c #D4E3ED",
"NX c #DAE4EE",
"BX c #DAE9EF",
"VX c #D5EBEB",
"CX c #CCE7F4",
"ZX c #D4E4F1",
"AX c #DBE6F2",
"SX c #DEE9F3",
"DX c #D6EAF7",
"FX c #CAF6F8",
"GX c #DAF7FC",
"HX c #E2E5E9",
"JX c #E1EAF4",
"KX c #E3E9F8",
"LX c #EAFAFF",
"PX c #FDFFFF",
"IX c #F5FCFC",
"UX c #FAE3F4",
/* pixels */
"O.O.O.O.0.O.0.w.q.R.@X-X$XwXwX;X;X@XXXXXU.@XY.Y.Y.Y.Y.Y.Y.oXoXoXoXY.P.P.P.P.P.U H 8 G G B B N 7 ",
"f.h.| | _ 8.:.3.j.C.=X7XrXrX4X,X,X,X1XqX8X8X8X8XqX8X9XqX>X6XqX>X#XZ.R.S.Z.A.M.B.d.d.+.+.r.F.F.V ",
"2.z.| | | 7.z.4.3.C.&X6X:X6X4X4X5X!.5X#X#X;XqX2X2X2X5X3XQ.*XZ.a.a.a.x.h._ _ ;.@.| | f.x.M.O.K J ",
"} -.] ' } ....g.S.y.t.x 5 5 n t.#X*X=X*X%X*X<X3X3XqX8XqX3X4XZ.h.h.x.x.f.f.z.f.8.8.| ..| %.M.O.H ",
"| <.-.-.....:.V.t.4 + + O .     5 T.>X<X<X5X^.5X>X>XqXqX3X*XS.b.g.a.b.g.h.m.g.d.s.a.8.8._ C.R H ",
"| 7.;.| 1.>.s.m o X X X . . X X   5 ;X0XQ.>X8X5XQ.Q.Q.Q.*X!.V.b.k.f.f.l.8.d.q.wXUXoXn 9.8.C.8.T ",
" .1.<.%.[ 8.T , 3 :   X @ + O       U 0X^.5X2X5X!.W.Z.Q.<XS.b.b.l.z.@.7.m.s.+XLXFX|.S t.E.D.8./ ",
"4.-.@.-.[ 8.q = - - & P sXOXB . O O x 6X<X3X,X&X!.!.Q.<X,XZ.b.v.g.>.@.z.8.w.+XhX|.|.).y.^.W.C.X.",
"a.c.>.4.j.` 4 , , & I.PXPXPXjXs O @ 4 :X7X1X1X&X!.5X2X2X!.B.b.a.g.f.@.<.f.a.r.sXhXaXI R.!.W.C.` ",
"$ q s.x.7.R $ 3 3 y  XFXjXjXgXP + + 8 9X3X7X*X&X,X3X^.^.E.V.b.b.k.l.,.2.| @.+.0.U H q.W.^.^.W.` ",
"X   $ +.z.` q + e c (.gXgXgXgXS = . H 0X1X%XQ.&X,X8X8X!.S.b.x.l.l.7.z.3. .2.;.a.+.#.n.&X2X2XE./ ",
"% %   m n.9.9 $ - d K. XgXjX`.z :   t.0X&XQ.*X1X4X3X4XW.b.n.n.k.l.j.j. .| 2.....$.] n.7X3X0X~.Y ",
"% % X w c.c.E $ X O i K.J.K.d 3 @   0.pX!.R.W.,X3X8X,XD.n.n.n.c.f.k.l.h.@.| 1.1.' } D.7X>X4XE./ ",
"% % 0 M.,.l.R $ . . & = 6 M - + O X   XXpX^.2XQ./.0X!.V.n.l.l.k.f.f.f.,.:.2. .1.<.h.=X7X5X2XS./ ",
"w 0.M.<.4.j.,.9 o   O + * O X   . @ # 4 pXpX0X9X0X4X~.B.b.b.f.l.x.>.,.3. .j.<.2.>.b.=X*X%X2XE./ ",
"f.g.3. . .3.3.#.9 o   . B s O . O O < @ n lXpXeX6XeX:X#X#XR.i.M.d.x.k.z.<.>.>.1.f.D.&X*X5X,XS./ ",
"2.....j.3. .} ] +.E 9 9 5 - 3 @ O + - 2 + H lXlXHXtX.X_.[.]._.F.u.p.s.a.h.2.4.2.g.D.*X*X*X,XS./ ",
",.,.2.3.l.:._ _ ! ) ^ ) T o & - * + & - ; O G .XV 7 < 6 6 : 6 7 N P I p.d.f.4.f.b.W.&X*X&X&XV.` ",
"z.3.3.2.1.,.,.] ! ! ~ ~ ( T o + 3 & & - ; ; ; < u p k g h y i i y u d P u.w.d.a.D.&X*X4X,X&XV./ ",
"v.8.7.3.2.-.} ~ ! Q o.X.Q Q Y $ - 3 4 & 3 2 r l l k g h h h h h h i i 6 V e.w.s.=X1X<X3X,X!.V.` ",
"y.d.k.:.-.| ] ~ ! Y Y W W o.^ E o 3 2 * : d r k p l h g g g g k i r r a 3 B I A.=X>X3X3X^.!.v.` ",
"L.U 0.s.a.:.} ^ ! ! W W W W W ^ q @ 2 2 : 6 u u d k c v c c l k i h j t 6 < V U.6X6X>XqX5X!.C.) ",
"v S I.L y.w._ { ^ W Y +.+.Q o.] T # 7 h g 2 d i i k c A H.S c c v h h i e u 6 P XX6X6X9X5X~.C.( ",
"v e p l OXL t.6.( +.Y rX:XE ( D.H 4 6 i p a z h k Z ].ZXDXFX{.C k g i k a a 2 f I 6X*X0X~.D.v.) ",
"GXaXJ.r l A `.S t.R q.pXXXy.=X:Xx 6 i g g h h l k ].IXPXPXLXFXaXl p p g l g u 6 I $X4X^.S.D.h.) ",
"AXLXLXI.t h h Z D G U./.9X0XeXT.G f z i p g g g M jXIXkXI _.hXGXL.2 p k g i i 2 V XX3X!.S.b.@.) ",
"mXBXKXKXL & - = t j D P.u.%X0Xu.B : f d g l c p M FXIX.X  @ FXIX].2 g k h h h 1 B G.*X~.b.c.:.) ",
"BXFXCXFXL X @ 3 S , , e P.U./.U B 7 h g l g h e 6 sXGXfX_.+XLXIX_.6 i i g k v 1 N G.%XS.b.k.,.) ",
"JXAXCXxX7 . O [.FXL.> t s b Y.I B u v l k p p 3 < V FXLXPXPXPXsXd d {.aXA g h t V F.#XM.x.z.| ) ",
"HXAXbXZXOXB P.CXFXGXiXb = > L L P e v c k k d a 2 6 S sXSXVXOXf 6 D `.dXdXg h a V F.=XN.a.2.1.] ",
"AXZXZXZXZXxXmXzXvXxXDXCX].t = s I.2 p l l l l z u 2 2 u f 7 : s f S < {.dXh e 7 P G.D.f.>.<.&.%.",
"AXcXZXMXzXCXzXzXCXvXxXvXDXiXS > r ).z k k c c j Z a a a s 3 s 2 s 6 S hXK.h 2 7 J i.v.h.a.<.[ 5.",
"MXMXMXzXMXmXzXmXCXcXcXcXzXDXCXI.> S b t h v c S h h k r t 1 1 t , L.hX).p a : N K p.g.8.@.-.[ ] ",
"AXNXAXMXzXzXcXmXZXcXHXcXcXcXDXGXuX, , t h C C K.K.H.c p i r i v `.dXJ.i l ; 6 G e.M.z.2.@.-.[ ] ",
"NXBXNXMXzXcXcXCXvXMXNXNXNXMXZXNXIXfXj > t N A N C J.`.}.'.'.{.}.'.l p z ; : B K p.M.1.2.<.$.[ =.",
"SXAXNXNXMXcXMXcXMXMXMXNXMXMXNXHXbXKXxXb = 2 f Z C N C A A A C C k l p ; X B K w.x.>.-.3...=.[ { ",
"SXSXBXNXNXAXNXcXMXmXmXmXmXMXZXHXJXMXLXvXx = , 3 d M A A C C C C z 3 O : V G 0.d.| <.<.....-.&.{ ",
"SXSXJXAXNXcXNXAXZXDXVXZXMXMXAXAXBXDXZXDXvXb > , ; ; * 7 d f < # @ # B J K O.d.;.3.$.$...{ $.%.] ",
"SXJXBXBXNXNXNXAXAXAXAXAXAXDXAXDXAXAXAXZXGXxXs + L.OXI B x 8 B F.G.G.K r.+.@.<.} 4.<.$.&.%.' { ^ ",
"SXSXJXBXAXNXNXAXAXAXDXSXSXSXAXAXAXAXAXAXcXLXfX, r {.mXtXyXyX-X-Xp.O.+.#.<.....{ $.$.$.-.&.&.%.%.",
"JXJXAXJXJXNXAXAXDXSXSXSXSXDXAXAXAXBXBXBXBXMXLXiX> a S e.p.+.+.#.@.@.;.-.&.1...1.%.1.&.$.&.&.&.1.",
"AXAXHXJXJXAXJXAXAXAXDXSXAXAXAXAXJXBXBXJXBXBXmXLX].= z P.O.c.*.*.*.&.' ' -.<.<.4.&.1.&.*.&.*.1.{ ",
"AXJXBXJXJXJXAXJXSXAXAXSXKXSXKXKXBXJXJXBXJXJXVXVXLXL., v u.q.,.=.*.{ *.3.2.f.,.4.1.&.' &.*.*.*.*.",
"JXJXJXJXJXAXJXJXSXAXSXSXSXSXKXSXJXJXJXHXJXJXHXHXUXnXj j I.H B.2.$...4.3.3.3.3.4.=.&.&.*.*.*.*.{ ",
"JXJXJXJXJXJXAXAXJXAXSXJXKXGXJXKXJXLXJXJXKXKXKXDXbXUXiX- v oXH z.1.' ] } $.&.2.1.*.*.*.*.*.*.*.[ ",
"JXJXJXJXAXJXJXJXJXJXJXJXSXKXJXJXJXJXJXJXJXKXSXDXMXmXIXP.> Z L q.h.2.<.%.=.=.&.&.*.*.*.*.*.*.*.*.",
"HXJXJXJXAXJXKXKXJXJXJXJXJXJXJXSXJXJXSXJXJXJXSXSXAXAXDXGXx , H.n d.l.%.%.*.*.4.*.4.*.*.*.*.5.{ 5.",
"LXJXJXJXJXJXAXKXAXHXJXJXJXJXJXJXJXJXJXJXSXJXJXJXJXKXbXLXiX, , I y._ *.%.4.*.=.*.*.*.*.5.[ { { [ "
};
